<?xml version="1.0" encoding="UTF-8"?>
<svg id="Capa_1" data-name="Capa 1" xmlns="http://www.w3.org/2000/svg" viewBox="0 0 799.99 800">
  <defs>
    <style>
      .cls-1 {
        fill: #fff;
        stroke-width: 0px;
      }
    </style>
  </defs>
  <path class="cls-1" d="m399.99,800c220.56,0,399.99-179.44,399.99-400,0-220.56-179.43-400-399.99-400S0,179.44,0,400s179.44,400,399.99,400Zm0-745.24c190.36,0,345.23,154.87,345.24,345.24,0,190.37-154.87,345.24-345.24,345.25-190.36,0-345.23-154.88-345.23-345.25,0-190.36,154.87-345.24,345.23-345.24Z"/>
  <path class="cls-1" d="m346.28,571.32c10.69,10.69,28.03,10.68,38.72,0,10.7-10.7,10.7-28.03,0-38.72l-105.21-105.2,304.66-.03c15.12,0,27.37-12.26,27.37-27.39,0-15.12-12.26-27.37-27.38-27.37l-304.67.03,105.23-105.22c10.69-10.69,10.69-28.03,0-38.72-5.35-5.34-12.35-8.02-19.36-8.02s-14.01,2.68-19.36,8.02l-151.96,151.96c-5.14,5.13-8.02,12.09-8.02,19.36,0,7.26,2.89,14.22,8.02,19.37l151.96,151.95Z"/>
</svg>